<svg xmlns="http://www.w3.org/2000/svg" xmlns:xlink="http://www.w3.org/1999/xlink" width="100%" height="100%" viewBox="0 0 1200 1200" fill-rule="evenodd" stroke-linejoin="round" stroke-miterlimit="2" xmlns:v="https://vecta.io/nano"><g transform="matrix(.778688 0 0 .778688 132.787 132.787)"><clipPath id="A"><path d="M-49.144 1313L1313-49.144V1313H-49.144z"/></clipPath><g clip-path="url(#A)"><use xlink:href="#D" fill="#ff007d"/></g><clipPath id="B"><path d="M1249.14-112.995L-112.995 1249.14V-112.995H1249.14z"/></clipPath><g clip-path="url(#B)"><use xlink:href="#D" fill="#00c9ff"/></g></g><path d="M543 414h-38.325l-72.3 372.002H470.7L543 414zm43.3 0h52.792L823.68 599.07 639.256 784.14h-52.792L770.9 599.07 586.28 414z" fill="#fff"/><defs ><path id="D" d="M600 0c331.15 0 600 268.85 600 600s-268.85 600-600 600S0 931.15 0 600 268.85 0 600 0zm0 48c304.657 0 552 247.343 552 552s-247.343 552-552 552S48 904.657 48 600 295.343 48 600 48z"/></defs></svg>