<svg xmlns="http://www.w3.org/2000/svg" xmlns:xlink="http://www.w3.org/1999/xlink" width="100%" height="100%" viewBox="0 0 4000 1200" fill-rule="evenodd" stroke-linejoin="round" stroke-miterlimit="2" xmlns:v="https://vecta.io/nano"><g transform="matrix(.778688 0 0 .778688 132.787 132.787)"><clipPath id="A"><path d="M-49.144 1313L1313-49.144V1313H-49.144z"/></clipPath><g clip-path="url(#A)"><use xlink:href="#D" fill="#ff007d"/></g><clipPath id="B"><path d="M1249.14-112.995L-112.995 1249.14V-112.995H1249.14z"/></clipPath><g clip-path="url(#B)"><use xlink:href="#D" fill="#00c9ff"/></g></g><g fill="#fff"><path d="M543 414h-38.325l-72.3 372.002H470.7L543 414zm43.3 0h52.792L823.68 599.07 639.256 784.14h-52.792L770.9 599.07 586.28 414z"/><path d="M1306.094 783.896h117.552c94.783 0 149.323-61.953 149.323-184.8s-54.54-184.8-149.323-184.8h-117.552v369.6zm31.77-28.064V442.36h86.3c72.544 0 114.905 50.304 114.905 132.38v48.715c0 82.075-42.36 132.38-114.905 132.38h-86.3zm523.692 28.064v-28.064h-184.27V610.215h175.27V582.15h-175.27v-139.8h184.27v-28.064h-216.042v369.6h216.042zm204.922 0l124.966-369.6h-33.36l-110.14 337.3h-2.118l-109.08-337.3h-34.418l123.907 369.6h40.243zm318.238 0l48.186-191.155 28.064-112.257h1.06l74.662 303.412h67.248l91.077-369.6h-58.776l-38.655 177.917-27.005 122.318h-1.6l-29.123-122.318-43.42-177.917h-66.72l-43.95 177.917-29.653 122.847h-1.6l-63.542-300.765h-60.894l87.37 369.6h67.248zm628.004 0l-126.025-369.6h-75.2l-126.025 369.6h60.894l32.3-100.078h138.203l33.36 100.078h62.483zm-110.67-151.44h-109.08l53.48-163.1h2.648l52.952 163.1zm227.694 2.117h73.603l74.132 149.323h66.72l-79.96-155.676c47.127-13.767 72.014-50.304 72.014-102.726 0-68.307-40.773-111.198-106.962-111.198H3069.9v369.6h59.835V634.573zm0-50.304V466.717h95.313c30.182 0 48.186 16.415 48.186 46.068V538.2c0 29.653-18.004 46.068-48.186 46.068h-95.313zM3527.4 790.25c84.722 0 133.967-46.068 133.967-114.905 0-58.776-33.36-91.606-106.962-105.903l-32.83-6.884c-39.714-7.943-58.776-21.18-58.776-51.892 0-32.3 24.358-49.774 66.72-49.774 40.773 0 67.248 15.885 86.3 40.773l41.832-37.066c-28.594-36.537-69.366-56.658-124.966-56.658-78.368 0-129.202 40.243-129.202 105.903 0 58.776 36.537 92.136 108.02 105.373l32.83 5.825c42.9 8.472 57.717 24.887 57.717 53.48 0 35.478-24.358 58.776-71.485 58.776-40.243 0-70.955-16.415-96.9-48.186l-41.302 38.655c30.712 38.125 73.073 62.483 135.026 62.483z" fill-rule="nonzero"/></g><defs ><path id="D" d="M600 0c331.15 0 600 268.85 600 600s-268.85 600-600 600S0 931.15 0 600 268.85 0 600 0zm0 48c304.657 0 552 247.343 552 552s-247.343 552-552 552S48 904.657 48 600 295.343 48 600 48z"/></defs></svg>